<?xml version="1.0" encoding="utf-8"?>
<!-- Generator: Adobe Illustrator 23.0.3, SVG Export Plug-In . SVG Version: 6.00 Build 0)  -->
<svg version="1.1" id="Laag_1" xmlns="http://www.w3.org/2000/svg" xmlns:xlink="http://www.w3.org/1999/xlink" x="0px" y="0px"
	 viewBox="0 0 1080 348" style="enable-background:new 0 0 1080 348;" xml:space="preserve">
<style type="text/css">
	.st0{fill:#0096E5;}
	.st1{fill:#333333;stroke:#333333;stroke-miterlimit:10;}
</style>
<path class="st0" d="M428.39,163.99c0-12.3,0.05-24.6-0.04-36.9c-0.01-2.12,0.52-3.43,2.51-4.48c4.38-2.31,8.64-4.85,12.86-7.44
	c2.13-1.31,2.53-0.73,2.6,1.54c0.69,24.19,1.5,48.38,2.15,72.57c0.06,2.28,0.78,3.52,2.69,4.69c20.28,12.43,40.51,24.96,60.76,37.45
	c3.37,2.08,3.39,2.1-0.11,4.11c-4.12,2.37-8.28,4.7-12.35,7.15c-1.43,0.86-2.53,0.92-4.05,0.04
	c-21.59-12.54-43.22-25.04-64.89-37.45c-1.78-1.02-2.16-2.24-2.15-4.08C428.41,188.79,428.39,176.39,428.39,163.99z"/>
<path class="st0" d="M450.74,151.02c0-12.29,0.05-24.58-0.05-36.88c-0.02-2.04,0.61-3.18,2.41-4.21
	c21.48-12.31,42.93-24.68,64.33-37.12c1.89-1.1,3.28-1.09,5.11,0.05c4.2,2.61,8.52,5.04,12.85,7.44c1.86,1.03,2.06,1.66,0.08,2.87
	c-11.33,6.91-22.6,13.92-33.9,20.89c-9.61,5.93-19.19,11.92-28.85,17.76c-1.92,1.16-1.93,2.81-1.99,4.57
	c-0.32,10.9-0.6,21.8-0.92,32.7c-0.38,13.08-0.83,26.15-1.12,39.23c-0.06,2.62-0.67,2.84-2.81,1.53c-4.22-2.59-8.52-5.05-12.88-7.4
	c-1.7-0.92-2.34-1.98-2.32-3.95C450.79,176,450.74,163.51,450.74,151.02z"/>
<path class="st0" d="M577.91,103.23c10.7,6.07,21.37,12.18,32.11,18.18c1.85,1.03,2.73,2.15,2.66,4.39
	c-0.15,4.95-0.05,9.91,0.12,14.86c0.08,2.5-0.62,2.56-2.62,1.5c-21.38-11.34-42.81-22.57-64.17-33.95
	c-2.01-1.07-3.45-1.06-5.41,0.02c-20.82,11.5-41.7,22.91-62.56,34.36c-3.47,1.91-3.5,1.91-3.52-2.13c-0.03-4.76,0-9.52-0.12-14.27
	c-0.04-1.67,0.45-2.66,1.97-3.54c21.57-12.59,43.11-25.23,64.6-37.94c1.77-1.05,3.01-0.77,4.61,0.14
	C556.33,91.01,567.13,97.1,577.91,103.23z"/>
<path class="st0" d="M578.15,129.07c10.69,6.07,21.36,12.17,32.09,18.16c1.78,0.99,2.47,2.1,2.47,4.17
	c0.1,24.76,0.27,49.52,0.53,74.27c0.02,2.18-0.67,3.39-2.57,4.42c-4.35,2.36-8.59,4.92-12.81,7.51c-1.82,1.11-2.46,0.98-2.54-1.34
	c-0.42-13.27-0.94-26.53-1.43-39.79c-0.42-11.29-0.89-22.57-1.2-33.86c-0.06-2.25-1.49-3.07-2.99-3.98
	c-9.32-5.66-18.66-11.28-27.98-16.94c-11.19-6.78-22.33-13.63-33.56-20.34c-2.25-1.34-2.13-1.99,0.06-3.2
	c4.33-2.39,8.6-4.92,12.79-7.55c1.63-1.02,2.88-1.06,4.58-0.07C556.41,116.78,567.29,122.9,578.15,129.07z"/>
<path class="st0" d="M555.56,263.73c-10.64,6.17-21.31,12.3-31.91,18.54c-1.83,1.07-3.23,1.27-5.14,0.08
	c-4.19-2.63-8.53-5.04-12.89-7.4c-2.2-1.19-1.9-1.83,0.03-3.02c20.58-12.73,41.1-25.56,61.71-38.25c1.94-1.2,2.65-2.44,2.71-4.68
	c0.58-23.78,1.28-47.56,1.93-71.35c0.11-3.96,0.11-3.98,3.62-1.96c4.12,2.38,8.22,4.8,12.38,7.1c1.46,0.81,2.07,1.73,2.07,3.49
	c-0.02,24.97,0.01,49.94,0.14,74.92c0.01,2.06-0.85,2.99-2.45,3.91C577,251.27,566.29,257.51,555.56,263.73z"/>
<path class="st0" d="M533.13,250.89c-10.63,6.16-21.29,12.29-31.88,18.53c-1.76,1.04-3.06,1.07-4.85,0.03
	c-21.42-12.41-42.88-24.76-64.38-37.04c-1.9-1.08-2.59-2.29-2.52-4.45c0.15-4.95,0.09-9.9-0.01-14.85c-0.04-2.13,0.4-2.62,2.44-1.51
	c11.66,6.34,23.37,12.58,35.07,18.85c9.95,5.34,19.93,10.62,29.83,16.06c1.97,1.08,3.4,0.26,4.95-0.57
	c9.59-5.19,19.16-10.41,28.75-15.6c11.5-6.23,23.04-12.4,34.5-18.7c2.29-1.26,2.79-0.84,2.73,1.66c-0.13,4.95-0.09,9.91,0.05,14.85
	c0.06,1.93-0.54,3.02-2.25,3.99C554.72,238.32,543.94,244.63,533.13,250.89z"/>
<g>
	<path class="st1" d="M89.84,204.66c-6.87-6.84-10.3-15.09-10.3-24.76s3.43-17.94,10.3-24.8c6.84-6.84,15.09-10.25,24.76-10.25
		c7.94,0,15.06,2.41,21.34,7.23c0.65,0.52,1.03,1.17,1.12,1.95c0.13,0.81-0.07,1.55-0.59,2.2c-0.49,0.65-1.14,1.03-1.95,1.12
		c-0.78,0.1-1.5-0.1-2.15-0.59c-5.24-4.04-11.17-6.05-17.77-6.05c-8.04,0-14.91,2.86-20.61,8.59c-5.7,5.7-8.54,12.57-8.54,20.61
		c0,8.04,2.85,14.91,8.54,20.61c5.7,5.7,12.56,8.54,20.61,8.54c7.55,0,14.09-2.52,19.63-7.57c0.62-0.55,1.33-0.81,2.15-0.78
		c0.81,0.03,1.5,0.36,2.05,0.98c0.52,0.59,0.76,1.29,0.73,2.1c-0.03,0.81-0.34,1.5-0.93,2.05c-6.71,6.09-14.58,9.13-23.63,9.13
		C104.93,214.96,96.68,211.53,89.84,204.66z M134.71,214.08c-0.55-0.55-0.83-1.24-0.83-2.05v-30.96h-24.51
		c-0.81,0-1.51-0.28-2.1-0.83c-0.59-0.59-0.88-1.29-0.88-2.1c0-0.81,0.29-1.5,0.88-2.05c0.59-0.59,1.29-0.88,2.1-0.88h27.44
		c0.81,0,1.51,0.29,2.1,0.88c0.55,0.55,0.83,1.24,0.83,2.05v33.89c0,0.81-0.28,1.5-0.83,2.05c-0.59,0.59-1.29,0.88-2.1,0.88
		C136,214.96,135.3,214.67,134.71,214.08z"/>
	<path class="st1" d="M156.02,214.72c-0.75-0.29-1.27-0.81-1.56-1.56c-0.33-0.75-0.33-1.5,0-2.25l6.79-16.36v-0.05l19.78-47.71
		c0.06-0.16,0.15-0.34,0.24-0.54l0.2-0.2c0.1-0.13,0.16-0.21,0.2-0.24c0.03-0.03,0.11-0.1,0.24-0.2c0.16-0.13,0.23-0.18,0.2-0.15
		c0.33-0.23,0.67-0.37,1.03-0.44h0.24c0.2-0.03,0.31-0.05,0.34-0.05c0.03,0,0.13,0.02,0.29,0.05c0.2,0,0.28,0,0.24,0
		c0.39,0.07,0.75,0.21,1.07,0.44l0.2,0.15c0.13,0.13,0.21,0.2,0.24,0.2c0.03,0.03,0.1,0.11,0.2,0.24c0.13,0.16,0.2,0.23,0.2,0.2
		c0.1,0.2,0.18,0.37,0.24,0.54l19.78,47.71v0.05l6.79,16.36c0.33,0.75,0.33,1.5,0,2.25c-0.29,0.75-0.81,1.27-1.56,1.56
		c-0.36,0.16-0.73,0.24-1.12,0.24c-1.3,0-2.2-0.6-2.69-1.81l-6.05-14.55h-35.64l-6.05,14.55c-0.49,1.2-1.38,1.81-2.69,1.81
		c-0.39,0-0.59,0-0.59,0S156.38,214.88,156.02,214.72z M199.14,192.74l-15.43-37.21l-15.43,37.21H199.14z"/>
	<path class="st1" d="M233.68,212.03c0,0.81-0.28,1.51-0.83,2.1c-0.59,0.55-1.27,0.83-2.05,0.83c-0.81,0-1.51-0.28-2.1-0.83
		c-0.55-0.59-0.83-1.29-0.83-2.1v-64.01c0-1.46,0.72-2.39,2.15-2.78c1.4-0.39,2.49,0.05,3.27,1.32l29.1,48.1l29.1-48.1
		c0.78-1.27,1.87-1.71,3.27-1.32c1.43,0.39,2.15,1.32,2.15,2.78v64.01c0,0.81-0.29,1.51-0.88,2.1c-0.55,0.55-1.24,0.83-2.05,0.83
		c-0.78,0-1.46-0.28-2.05-0.83c-0.55-0.59-0.83-1.29-0.83-2.1v-53.56l-26.22,43.31l-0.05,0.05v0.05c-0.07,0.07-0.13,0.15-0.2,0.24
		c-0.1,0.1-0.16,0.16-0.2,0.2c-0.07,0.07-0.13,0.13-0.2,0.2c-0.1,0.07-0.18,0.13-0.24,0.2c-0.16,0.1-0.2,0.11-0.1,0.05
		c0.03-0.03-0.02-0.02-0.15,0.05c-0.1,0.07-0.2,0.11-0.29,0.15c-0.07,0.03-0.15,0.07-0.24,0.1c-0.1,0.03-0.2,0.05-0.29,0.05
		c-0.07,0.03-0.15,0.05-0.24,0.05c-0.1,0.03-0.2,0.05-0.29,0.05s-0.2-0.02-0.29-0.05c-0.1,0-0.18-0.02-0.24-0.05
		c-0.1,0-0.2-0.02-0.29-0.05c-0.1-0.03-0.18-0.06-0.24-0.1c-0.1-0.03-0.2-0.08-0.29-0.15c-0.03,0-0.07,0-0.1,0
		c0-0.03-0.02-0.05-0.05-0.05c0.1,0.07,0.06,0.05-0.1-0.05c-0.07-0.06-0.15-0.13-0.24-0.2c-0.07-0.06-0.13-0.13-0.2-0.2
		c-0.07-0.06-0.13-0.13-0.2-0.2c-0.07-0.1-0.13-0.18-0.2-0.24v-0.05l-0.05-0.05l-26.22-43.31V212.03z"/>
	<path class="st1" d="M320.17,214.96c-0.81,0-1.5-0.29-2.05-0.88c-0.59-0.55-0.88-1.24-0.88-2.05v-64.26c0-0.81,0.29-1.5,0.88-2.05
		c0.59-0.62,1.27-0.91,2.05-0.88l38.77,0.1c0.81,0,1.5,0.29,2.05,0.88c0.59,0.59,0.88,1.27,0.88,2.05c0,0.81-0.29,1.51-0.88,2.1
		c-0.55,0.55-1.24,0.83-2.05,0.83l-35.84-0.1v26.27h26.81c0.81,0,1.5,0.29,2.05,0.88c0.59,0.55,0.88,1.24,0.88,2.05
		c0,0.81-0.29,1.5-0.88,2.05c-0.55,0.59-1.24,0.88-2.05,0.88H323.1v26.27h35.84c0.81,0,1.5,0.29,2.05,0.88
		c0.59,0.55,0.88,1.24,0.88,2.05c0,0.81-0.29,1.5-0.88,2.05c-0.55,0.59-1.24,0.88-2.05,0.88H320.17z"/>
</g>
<g>
	<path class="st1" d="M687.08,212.03c0,0.81-0.29,1.5-0.88,2.05c-0.55,0.59-1.24,0.88-2.05,0.88c-0.81,0-1.5-0.29-2.05-0.88
		c-0.59-0.55-0.88-1.24-0.88-2.05v-64.26c0-0.81,0.29-1.5,0.88-2.05c0.62-0.62,1.3-0.91,2.05-0.88l38.77,0.1
		c0.81,0,1.5,0.29,2.05,0.88c0.59,0.59,0.88,1.27,0.88,2.05c0,0.81-0.29,1.51-0.88,2.1c-0.55,0.55-1.24,0.83-2.05,0.83l-35.84-0.1
		v26.27h26.81c0.81,0,1.5,0.29,2.05,0.88c0.59,0.55,0.88,1.24,0.88,2.05c0,0.81-0.29,1.5-0.88,2.05c-0.55,0.59-1.24,0.88-2.05,0.88
		h-26.81V212.03z"/>
	<path class="st1" d="M765.08,145.04c5.63,0,10.45,1.84,14.45,5.52c3.97,3.68,5.96,8.12,5.96,13.33c0,4.62-1.63,8.69-4.88,12.21
		c-3.19,3.48-7.21,5.6-12.06,6.35l13.92,28.37c0.36,0.72,0.41,1.45,0.15,2.2c-0.26,0.75-0.75,1.3-1.46,1.66
		c-0.39,0.2-0.81,0.29-1.27,0.29c-1.21,0-2.07-0.54-2.59-1.61l-15.09-30.62h-16.31v28.86c0,0.78-0.29,1.46-0.88,2.05
		c-0.55,0.55-1.24,0.83-2.05,0.83c-0.78,0-1.46-0.28-2.05-0.83c-0.55-0.59-0.83-1.27-0.83-2.05v-63.67c0-0.81,0.28-1.5,0.83-2.05
		c0.59-0.55,1.27-0.83,2.05-0.83H765.08z M779.73,163.89c0-3.61-1.43-6.69-4.3-9.23c-2.87-2.57-6.32-3.86-10.35-3.86h-19.19v26.12
		h19.53c3.97-0.06,7.34-1.37,10.11-3.91C778.33,170.48,779.73,167.44,779.73,163.89z"/>
	<path class="st1" d="M799.96,214.72c-0.75-0.29-1.27-0.81-1.56-1.56c-0.33-0.75-0.33-1.5,0-2.25l6.79-16.36v-0.05l19.78-47.71
		c0.06-0.16,0.15-0.34,0.24-0.54l0.2-0.2c0.1-0.13,0.16-0.21,0.2-0.24c0.03-0.03,0.11-0.1,0.24-0.2c0.16-0.13,0.23-0.18,0.2-0.15
		c0.33-0.23,0.67-0.37,1.03-0.44h0.24c0.2-0.03,0.31-0.05,0.34-0.05c0.03,0,0.13,0.02,0.29,0.05c0.2,0,0.28,0,0.24,0
		c0.39,0.07,0.75,0.21,1.07,0.44l0.2,0.15c0.13,0.13,0.21,0.2,0.24,0.2c0.03,0.03,0.1,0.11,0.2,0.24c0.13,0.16,0.2,0.23,0.2,0.2
		c0.1,0.2,0.18,0.37,0.24,0.54l19.78,47.71v0.05l6.79,16.36c0.33,0.75,0.33,1.5,0,2.25c-0.29,0.75-0.81,1.27-1.56,1.56
		c-0.36,0.16-0.73,0.24-1.12,0.24c-1.3,0-2.2-0.6-2.69-1.81l-6.05-14.55h-35.64l-6.05,14.55c-0.49,1.2-1.38,1.81-2.69,1.81
		c-0.39,0-0.59,0-0.59,0S800.32,214.88,799.96,214.72z M843.08,192.74l-15.43-37.21l-15.43,37.21H843.08z"/>
	<path class="st1" d="M877.62,212.03c0,0.81-0.28,1.51-0.83,2.1c-0.59,0.55-1.27,0.83-2.05,0.83c-0.81,0-1.51-0.28-2.1-0.83
		c-0.55-0.59-0.83-1.29-0.83-2.1v-64.01c0-1.46,0.72-2.39,2.15-2.78c1.4-0.39,2.49,0.05,3.27,1.32l29.1,48.1l29.1-48.1
		c0.78-1.27,1.87-1.71,3.27-1.32c1.43,0.39,2.15,1.32,2.15,2.78v64.01c0,0.81-0.29,1.51-0.88,2.1c-0.55,0.55-1.24,0.83-2.05,0.83
		c-0.78,0-1.46-0.28-2.05-0.83c-0.55-0.59-0.83-1.29-0.83-2.1v-53.56l-26.22,43.31l-0.05,0.05v0.05c-0.07,0.07-0.13,0.15-0.2,0.24
		c-0.1,0.1-0.16,0.16-0.2,0.2c-0.07,0.07-0.13,0.13-0.2,0.2c-0.1,0.07-0.18,0.13-0.24,0.2c-0.16,0.1-0.2,0.11-0.1,0.05
		c0.03-0.03-0.02-0.02-0.15,0.05c-0.1,0.07-0.2,0.11-0.29,0.15c-0.07,0.03-0.15,0.07-0.24,0.1c-0.1,0.03-0.2,0.05-0.29,0.05
		c-0.07,0.03-0.15,0.05-0.24,0.05c-0.1,0.03-0.2,0.05-0.29,0.05s-0.2-0.02-0.29-0.05c-0.1,0-0.18-0.02-0.24-0.05
		c-0.1,0-0.2-0.02-0.29-0.05c-0.1-0.03-0.18-0.06-0.24-0.1c-0.1-0.03-0.2-0.08-0.29-0.15c-0.03,0-0.07,0-0.1,0
		c0-0.03-0.02-0.05-0.05-0.05c0.1,0.07,0.06,0.05-0.1-0.05c-0.07-0.06-0.15-0.13-0.24-0.2c-0.07-0.06-0.13-0.13-0.2-0.2
		c-0.07-0.06-0.13-0.13-0.2-0.2c-0.07-0.1-0.13-0.18-0.2-0.24v-0.05l-0.05-0.05l-26.22-43.31V212.03z"/>
	<path class="st1" d="M964.12,214.96c-0.81,0-1.5-0.29-2.05-0.88c-0.59-0.55-0.88-1.24-0.88-2.05v-64.26c0-0.81,0.29-1.5,0.88-2.05
		c0.59-0.62,1.27-0.91,2.05-0.88l38.77,0.1c0.81,0,1.5,0.29,2.05,0.88c0.59,0.59,0.88,1.27,0.88,2.05c0,0.81-0.29,1.51-0.88,2.1
		c-0.55,0.55-1.24,0.83-2.05,0.83l-35.84-0.1v26.27h26.81c0.81,0,1.5,0.29,2.05,0.88c0.59,0.55,0.88,1.24,0.88,2.05
		c0,0.81-0.29,1.5-0.88,2.05c-0.55,0.59-1.24,0.88-2.05,0.88h-26.81v26.27h35.84c0.81,0,1.5,0.29,2.05,0.88
		c0.59,0.55,0.88,1.24,0.88,2.05c0,0.81-0.29,1.5-0.88,2.05c-0.55,0.59-1.24,0.88-2.05,0.88H964.12z"/>
</g>
</svg>
